NotoSerifEthiopic-Regular.ufo
<glyph name="ra-ethiopic" format="2">
  <advance width="558"/>
  <unicode hex="1228"/>
  <note>
uni1228
</note>
  <anchor x="281" y="718" name="top"/>
  <outline>
    <contour>
      <point x="457" y="-67" type="curve" smooth="yes"/>
      <point x="481" y="-67"/>
      <point x="503" y="-59"/>
      <point x="513" y="-51" type="curve"/>
      <point x="496" y="-36"/>
      <point x="482" y="-13"/>
      <point x="482" y="23" type="curve" smooth="yes"/>
      <point x="482" y="57"/>
      <point x="492" y="80"/>
      <point x="513" y="101" type="curve"/>
      <point x="503" y="108"/>
      <point x="481" y="115"/>
      <point x="457" y="115" type="curve" smooth="yes"/>
      <point x="404" y="115"/>
      <point x="378" y="84"/>
      <point x="372" y="50" type="curve"/>
      <point x="279" y="50" type="line"/>
      <point x="279" y="0" type="line"/>
      <point x="372" y="0" type="line"/>
      <point x="379" y="-36"/>
      <point x="404" y="-67"/>
    </contour>
    <component base="nose"/>
  </outline>
</glyph>
<glyph name="ree-ethiopic" format="2">
  <advance width="613"/>
  <unicode hex="122C"/>
  <note>
uni122C
</note>
  <anchor x="319" y="718" name="top"/>
  <outline>
    <contour>
      <point x="286" y="0" type="line"/>
      <point x="422" y="0" type="line"/>
      <point x="422" y="16" type="line"/>
      <point x="330" y="50" type="line"/>
      <point x="286" y="50" type="line"/>
    </contour>
    <component base="nose"/>
    <component base="ballbig" xOffset="239" yOffset="-187"/>
  </outline>
</glyph>
<glyph name="qhwa-ethiopic" format="2">
  <advance width="808"/>
  <unicode hex="1258"/>
  <note>
uni1258
</note>
  <anchor x="406" y="826" name="top"/>
  <outline>
    <contour>
      <point x="304" y="-5" type="curve"/>
      <point x="422" y="4" type="line"/>
      <point x="422" y="43" type="line"/>
      <point x="391" y="43"/>
      <point x="373" y="56"/>
      <point x="373" y="110" type="curve" smooth="yes"/>
      <point x="373" y="738" type="line"/>
      <point x="275" y="738" type="line"/>
      <point x="275" y="73" type="line" smooth="yes"/>
      <point x="275" y="35"/>
      <point x="286" y="12"/>
    </contour>
    <component base="rightbulbsmall" xOffset="356" yOffset="-158"/>
    <component base="midringshort" xOffset="10" yOffset="64"/>
    <component base="bonemiddle" xOffset="27"/>
  </outline>
</glyph>
<glyph name="qhwee-ethiopic" format="2">
  <advance width="665"/>
  <unicode hex="125C"/>
  <note>
uni125C
</note>
  <anchor x="332" y="826" name="top"/>
  <outline>
    <contour>
      <point x="266" y="0" type="line"/>
      <point x="404" y="0" type="line"/>
      <point x="390" y="50" type="line"/>
      <point x="266" y="50" type="line"/>
    </contour>
    <component base="qhee-ethiopic" xOffset="11"/>
    <component base="leftsingleflag" xOffset="25" yOffset="-354"/>
  </outline>
</glyph>
<glyph name="twa-ethiopic" format="2">
  <advance width="684"/>
  <unicode hex="1277"/>
  <note>
uni1277
</note>
  <anchor x="342" y="718" name="top"/>
  <outline>
    <contour>
      <point x="325" y="3" type="curve"/>
      <point x="443" y="10" type="line"/>
      <point x="443" y="50" type="line"/>
      <point x="412" y="50"/>
      <point x="394" y="63"/>
      <point x="394" y="111" type="curve" smooth="yes"/>
      <point x="394" y="647" type="line" smooth="yes"/>
      <point x="394" y="678"/>
      <point x="383" y="707"/>
      <point x="365" y="718" type="curve"/>
      <point x="250" y="709" type="line"/>
      <point x="250" y="669" type="line"/>
      <point x="279" y="669"/>
      <point x="296" y="649"/>
      <point x="296" y="610" type="curve" smooth="yes"/>
      <point x="296" y="79" type="line" smooth="yes"/>
      <point x="296" y="41"/>
      <point x="307" y="20"/>
    </contour>
    <component base="footmiddle" xOffset="10" yOffset="464"/>
    <component base="footmiddle" xOffset="13"/>
  </outline>
</glyph>
<glyph name="xwee-ethiopic" format="2">
  <advance width="666"/>
  <unicode hex="128C"/>
  <note>
uni128C
</note>
  <anchor x="323" y="718" name="top"/>
  <outline>
    <contour>
      <point x="314" y="0" type="line"/>
      <point x="440" y="0" type="line"/>
      <point x="400" y="50" type="line"/>
      <point x="314" y="50" type="line"/>
    </contour>
    <component base="xee-ethiopic"/>
    <component base="leftsingleflag" xOffset="75" yOffset="-354"/>
  </outline>
</glyph>
<glyph name="wu-ethiopic" format="2">
  <advance width="820"/>
  <unicode hex="12C9"/>
  <note>
uni12C9
</note>
  <anchor x="418" y="714" name="top"/>
  <outline>
    <contour>
      <point x="393" y="203" type="line"/>
      <point x="609" y="203" type="line"/>
      <point x="609" y="253" type="line"/>
      <point x="393" y="253" type="line"/>
    </contour>
    <component base="wa-ethiopic"/>
    <component base="rightdoubleflag" xOffset="524" yOffset="203"/>
  </outline>
</glyph>
<glyph name="dee-ethiopic" format="2">
  <advance width="712"/>
  <unicode hex="12F4"/>
  <note>
uni12F4
</note>
  <anchor x="351" y="651" name="top"/>
  <outline>
    <contour>
      <point x="207" y="166" type="line"/>
      <point x="479" y="166" type="line"/>
      <point x="537" y="216" type="line"/>
      <point x="207" y="216" type="line"/>
    </contour>
    <component base="ballsmall" xOffset="376" yOffset="-200"/>
    <component base="leftsingleflag" yOffset="-188"/>
    <component base="upperloop" xOffset="3" yOffset="-75"/>
  </outline>
</glyph>
<glyph name="ddi-ethiopic" format="2">
  <advance width="910"/>
  <unicode hex="12FA"/>
  <note>
uni12FA
</note>
  <anchor x="450" y="830" name="top"/>
  <outline>
    <contour>
      <point x="326" y="702" type="line"/>
      <point x="411" y="702" type="line"/>
      <point x="411" y="830" type="line"/>
      <point x="326" y="830" type="line"/>
    </contour>
    <component base="di-ethiopic"/>
  </outline>
</glyph>
<glyph name="jee-ethiopic" format="2">
  <advance width="771"/>
  <unicode hex="1304"/>
  <note>
uni1304
</note>
  <anchor x="380" y="825" name="top"/>
  <outline>
    <contour>
      <point x="211" y="166" type="line"/>
      <point x="549" y="166" type="line"/>
      <point x="594" y="216" type="line"/>
      <point x="211" y="216" type="line"/>
    </contour>
    <contour>
      <point x="326" y="580" type="line"/>
      <point x="417" y="580" type="line"/>
      <point x="417" y="727" type="line"/>
      <point x="326" y="727" type="line"/>
    </contour>
    <component base="ballsmall" xOffset="435" yOffset="-200"/>
    <component base="leftsingleflag" yOffset="-188"/>
    <component base="bonelong" xOffset="48" yOffset="-2"/>
    <component base="upperloopsmall" xOffset="144"/>
  </outline>
</glyph>
<glyph name="gwee-ethiopic" format="2">
  <advance width="740"/>
  <unicode hex="1314"/>
  <note>
uni1314
</note>
  <anchor x="394" y="714" name="top"/>
  <outline>
    <contour>
      <point x="256" y="0" type="line"/>
      <point x="517" y="0" type="line"/>
      <point x="517" y="50" type="line"/>
      <point x="256" y="50" type="line"/>
    </contour>
    <component base="leftsingleflag" xOffset="25" yOffset="-354"/>
    <component base="gee-ethiopic" xOffset="25"/>
  </outline>
</glyph>
<glyph name="phaa-ethiopic" format="2">
  <advance width="622"/>
  <unicode hex="1333"/>
  <note>
uni1333
</note>
  <anchor x="326" y="814" name="top"/>
  <outline>
    <contour>
      <point x="251" y="695" type="line"/>
      <point x="338" y="695" type="line"/>
      <point x="338" y="814" type="line"/>
      <point x="251" y="814" type="line"/>
    </contour>
    <component base="tsaa-ethiopic"/>
  </outline>
</glyph>
<glyph name="phee-ethiopic" format="2">
  <advance width="781"/>
  <unicode hex="1334"/>
  <note>
uni1334
</note>
  <anchor x="408" y="814" name="top"/>
  <outline>
    <contour>
      <point x="251" y="695" type="line"/>
      <point x="338" y="695" type="line"/>
      <point x="338" y="814" type="line"/>
      <point x="251" y="814" type="line"/>
    </contour>
    <component base="tsee-ethiopic"/>
  </outline>
</glyph>
<glyph name="tze-ethiopic" format="2">
  <advance width="638"/>
  <unicode hex="1345"/>
  <note>
uni1345
</note>
  <anchor x="319" y="760" name="top"/>
  <outline>
    <contour>
      <point x="138" y="285" type="line"/>
      <point x="505" y="285" type="line"/>
      <point x="505" y="334" type="line"/>
      <point x="138" y="334" type="line"/>
    </contour>
    <component base="ePharyngeal-ethiopic"/>
  </outline>
</glyph>
<glyph name="comma-ethiopic" format="2">
  <advance width="386"/>
  <unicode hex="1363"/>
  <note>
uni1363
</note>
  <outline>
    <contour>
      <point x="72" y="503" type="line"/>
      <point x="314" y="503" type="line"/>
      <point x="314" y="585" type="line"/>
      <point x="72" y="585" type="line"/>
    </contour>
    <component base="yizet-ethiopic" xOffset="59" yOffset="121"/>
    <component base="yizet-ethiopic" xOffset="59" yOffset="312"/>
  </outline>
</glyph>
<glyph name="colon-ethiopic" format="2">
  <advance width="386"/>
  <unicode hex="1365"/>
  <note>
uni1365
</note>
  <outline>
    <contour>
      <point x="72" y="327" type="line"/>
      <point x="314" y="327" type="line"/>
      <point x="314" y="409" type="line"/>
      <point x="72" y="409" type="line"/>
    </contour>
    <component base="yizet-ethiopic" xOffset="59" yOffset="121"/>
    <component base="yizet-ethiopic" xOffset="59" yOffset="479"/>
  </outline>
</glyph>
<glyph name="prefacecolon-ethiopic" format="2">
  <advance width="578"/>
  <unicode hex="1366"/>
  <note>
uni1366
</note>
  <outline>
    <contour>
      <point x="264" y="327" type="line"/>
      <point x="506" y="327" type="line"/>
      <point x="506" y="409" type="line"/>
      <point x="264" y="409" type="line"/>
    </contour>
    <component base="yizet-ethiopic" yOffset="161"/>
    <component base="yizet-ethiopic" yOffset="440"/>
  </outline>
</glyph>
<glyph name="pwee-ethiopic" format="2">
  <advance width="671"/>
  <unicode hex="138E"/>
  <note>
uni138E
</note>
  <anchor x="330" y="714" name="top"/>
  <outline>
    <contour>
      <point x="235" y="0" type="line"/>
      <point x="401" y="0" type="line"/>
      <point x="401" y="50" type="line"/>
      <point x="235" y="50" type="line"/>
    </contour>
    <component base="pee-ethiopic"/>
    <component base="leftsingleflag" xOffset="44" yOffset="-354"/>
  </outline>
</glyph>
<glyph name="shoa-ethiopic" format="2">
  <advance width="767"/>
  <unicode hex="2D84"/>
  <note>
uni2D84
</note>
  <anchor x="370" y="826" name="top"/>
  <outline>
    <contour>
      <point x="414" y="585" type="line"/>
      <point x="505" y="585" type="line"/>
      <point x="505" y="726" type="line"/>
      <point x="414" y="726" type="line"/>
    </contour>
    <component base="boshort" xOffset="133"/>
    <component base="bonemiddle" xOffset="163"/>
    <component base="leftdoubleflag" xOffset="-10" yOffset="285"/>
  </outline>
</glyph>
<glyph name="poa-ethiopic" format="2">
  <advance width="788"/>
  <unicode hex="2D92"/>
  <note>
uni2D92
</note>
  <anchor x="394" y="714" name="top"/>
  <outline>
    <contour>
      <point x="252" y="329" type="line"/>
      <point x="338" y="329" type="line"/>
      <point x="378" y="379" type="line"/>
      <point x="252" y="379" type="line"/>
    </contour>
    <component base="po-ethiopic" xOffset="102"/>
    <component base="leftdoubleflag" yOffset="329"/>
  </outline>
</glyph>
<glyph name="tthe-ethiopic" format="2">
  <advance width="642"/>
  <unicode hex="AB05"/>
  <note>
uniAB05
</note>
  <anchor x="343" y="763" name="top"/>
  <outline>
    <contour>
      <point x="130" y="282" type="line"/>
      <point x="483" y="282" type="line"/>
      <point x="483" y="332" type="line"/>
      <point x="130" y="332" type="line"/>
    </contour>
    <component base="se-ethiopic" xOffset="3"/>
  </outline>
</glyph>
<glyph name="ttho-ethiopic" format="2">
  <advance width="625"/>
  <unicode hex="AB06"/>
  <note>
uniAB06
</note>
  <anchor x="342" y="765" name="top"/>
  <outline>
    <contour>
      <point x="148" y="321" type="line"/>
      <point x="501" y="321" type="line"/>
      <point x="501" y="366" type="line"/>
      <point x="148" y="366" type="line"/>
    </contour>
    <component base="so-ethiopic" xOffset="3"/>
  </outline>
</glyph>
<glyph name="ddho-ethiopic" format="2">
  <advance width="726"/>
  <unicode hex="AB0E"/>
  <note>
uniAB0E
</note>
  <anchor x="378" y="830" name="top"/>
  <outline>
    <contour>
      <point x="238" y="558" type="line"/>
      <point x="521" y="558" type="line"/>
      <point x="521" y="600" type="line"/>
      <point x="238" y="600" type="line"/>
    </contour>
    <component base="ddo-ethiopic"/>
  </outline>
</glyph>
<glyph name="cchhee-ethiopic" format="2">
  <advance width="1325"/>
  <unicode hex="AB24"/>
  <note>
uniAB24
</note>
  <anchor x="688" y="825" name="top"/>
  <outline>
    <contour>
      <point x="815" y="442" type="line"/>
      <point x="926" y="442" type="line"/>
      <point x="926" y="492" type="line"/>
      <point x="815" y="492" type="line"/>
    </contour>
    <component base="cchha-ethiopic"/>
    <component base="rightbulbsmall" xOffset="883" yOffset="110"/>
  </outline>
</glyph>
<glyph name="eightIni-ethiopic" format="2">
  <advance width="586"/>
  <note>
uni1370
</note>
  <outline>
    <contour>
      <point x="164" y="733" type="line"/>
      <point x="606" y="733" type="line"/>
      <point x="606" y="783" type="line"/>
      <point x="164" y="783" type="line"/>
    </contour>
    <contour>
      <point x="164" y="0" type="line"/>
      <point x="606" y="0" type="line"/>
      <point x="606" y="50" type="line"/>
      <point x="164" y="50" type="line"/>
    </contour>
    <component base="eightform"/>
    <component base="leftsingleflag" xOffset="11" yOffset="379"/>
    <component base="leftsingleflag" xOffset="6" yOffset="-354"/>
  </outline>
</glyph>
<glyph name="eightMed-ethiopic" format="2">
  <advance width="599"/>
  <note>
uni1370
</note>
  <outline>
    <contour>
      <point x="-20" y="733" type="line"/>
      <point x="619" y="733" type="line"/>
      <point x="619" y="783" type="line"/>
      <point x="-20" y="783" type="line"/>
    </contour>
    <contour>
      <point x="-20" y="0" type="line"/>
      <point x="619" y="0" type="line"/>
      <point x="619" y="50" type="line"/>
      <point x="-20" y="50" type="line"/>
    </contour>
    <component base="eightform"/>
  </outline>
</glyph>
<glyph name="eightyIni-ethiopic" format="2">
  <advance width="746"/>
  <note>
uni1379
</note>
  <outline>
    <contour>
      <point x="179" y="733" type="line"/>
      <point x="766" y="733" type="line"/>
      <point x="766" y="783" type="line"/>
      <point x="179" y="783" type="line"/>
    </contour>
    <contour>
      <point x="179" y="0" type="line"/>
      <point x="766" y="0" type="line"/>
      <point x="766" y="50" type="line"/>
      <point x="179" y="50" type="line"/>
    </contour>
    <component base="eightyform"/>
    <component base="leftsingleflag" xOffset="26" yOffset="379"/>
    <component base="leftsingleflag" xOffset="21" yOffset="-354"/>
  </outline>
</glyph>
<glyph name="seventyIni-ethiopic" format="2">
  <advance width="563"/>
  <note>
uni1378
</note>
  <outline>
    <contour>
      <point x="158" y="733" type="line"/>
      <point x="583" y="733" type="line"/>
      <point x="583" y="783" type="line"/>
      <point x="158" y="783" type="line"/>
    </contour>
    <contour>
      <point x="158" y="0" type="line"/>
      <point x="583" y="0" type="line"/>
      <point x="583" y="50" type="line"/>
      <point x="158" y="50" type="line"/>
    </contour>
    <component base="seventyform"/>
    <component base="leftsingleflag" xOffset="5" yOffset="379"/>
    <component base="leftsingleflag" yOffset="-354"/>
  </outline>
</glyph>
